# xmcd
#
# Track frame offsets: 
#        150
#        20210
#        35999
#        51217
#        65444
#        82721
#        98063
#        112045
#        128199
#        142077
#
# Disc length: 2118 seconds
#
# Revision: 0
# Processed by: cddbd v1.5.2PL0 Copyright (c) Steve Scherf et al.
# Submitted via: ExactAudioCopyFreeDBPlugin 1.0
#
DISCID=8f08440a
DTITLE=Tim Nichols - Where the Good Life Is
DYEAR=2007
DGENRE=Country
TTITLE0=Live Like You Were Dying
TTITLE1=Heads Carolina, Tails California
TTITLE2=(This Ain't) No Thinkin' Thing
TTITLE3=I'm Over You
TTITLE4=That'd Be Alright
TTITLE5=Brotherly Love
TTITLE6=See Jane Run
TTITLE7=Nobody Gonna Tell Me What to Do
TTITLE8=Vidalia
TTITLE9=Where the Good Life Is
EXTD=
EXTT0=
EXTT1=
EXTT2=
EXTT3=
EXTT4=
EXTT5=
EXTT6=
EXTT7=
EXTT8=
EXTT9=
PLAYORDER=
